sfk_cyclingleg_states
version=1
nRows=5
nColumns=53
inDegrees=yes

# SIMM Motion File Header:
name sfk_cyclingleg_states
datacolumns 53
datarows 5
otherdata 1
range 0.00000000 0.01483136
endheader
time	/jointset/bb/crank_angle/value	/jointset/bb/crank_angle/speed	/jointset/spindle/pedal_angle_r/value	/jointset/spindle/pedal_angle_r/speed	/jointset/ground_pelvis/pelvis_tilt/value	/jointset/ground_pelvis/pelvis_tilt/speed	/jointset/ground_pelvis/pelvis_list/value	/jointset/ground_pelvis/pelvis_list/speed	/jointset/ground_pelvis/pelvis_rotation/value	/jointset/ground_pelvis/pelvis_rotation/speed	/jointset/ground_pelvis/pelvis_tx/value	/jointset/ground_pelvis/pelvis_tx/speed	/jointset/ground_pelvis/pelvis_ty/value	/jointset/ground_pelvis/pelvis_ty/speed	/jointset/ground_pelvis/pelvis_tz/value	/jointset/ground_pelvis/pelvis_tz/speed	/jointset/hip_r/hip_angle_r/value	/jointset/hip_r/hip_angle_r/speed	/jointset/hip_r/hip_adduction_r/value	/jointset/hip_r/hip_adduction_r/speed	/jointset/hip_r/hip_rotation_r/value	/jointset/hip_r/hip_rotation_r/speed	/jointset/knee_r/knee_angle_r/value	/jointset/knee_r/knee_angle_r/speed	/jointset/knee_r/tib_tx_r/value	/jointset/knee_r/tib_tx_r/speed	/jointset/knee_r/tib_ty_r/value	/jointset/knee_r/tib_ty_r/speed	/jointset/tib_pat_r/pat_angle_r/value	/jointset/tib_pat_r/pat_angle_r/speed	/jointset/tib_pat_r/pat_tx_r/value	/jointset/tib_pat_r/pat_tx_r/speed	/jointset/tib_pat_r/pat_ty_r/value	/jointset/tib_pat_r/pat_ty_r/speed	/jointset/ankle_r/ankle_angle_r/value	/jointset/ankle_r/ankle_angle_r/speed	/jointset/subtalar_r/subtalar_angle_r/value	/jointset/subtalar_r/subtalar_angle_r/speed	/jointset/mtp_r/mtp_angle_r/value	/jointset/mtp_r/mtp_angle_r/speed	/forceset/bifemlh_r/activation	/forceset/bifemlh_r/fiber_length	/forceset/bifemsh_r/activation	/forceset/bifemsh_r/fiber_length	/forceset/glut_max2_r/activation	/forceset/glut_max2_r/fiber_length	/forceset/vas_int_r/activation	/forceset/vas_int_r/fiber_length	/forceset/med_gas_r/activation	/forceset/med_gas_r/fiber_length	/forceset/tib_ant_r/activation	/forceset/tib_ant_r/fiber_length
      0.00000000	    -10.13487855	   -480.13863232	     -0.33263585	    612.63851036	      0.00000000	     -0.00000000	      0.00000000	      0.00000000	      0.00000000	      0.00000000	      0.00000000	     -0.00000000	      0.00000000	     -0.00000000	      0.00000000	     -0.00000000	     80.37634255	     49.91395567	      4.04256409	      1.26483505	     -4.19507005	     14.13209085	   -119.06158026	    128.39772105	     -0.00340490	      0.04750505	     -0.49574279	      0.04065200	     17.65069646	      0.07486898	      0.01991928	      0.06518853	     -0.02453158	      0.01061798	     28.94541830	    -47.12922689	      0.00000000	     -0.00000000	     -0.00000000	     -0.00000000	      0.05000000	      0.13623686	      0.05000000	      0.14451326	      0.05000000	      0.15404591	      0.05000000	      0.16207802	      0.05000000	      0.12973203	      0.05000000	      0.10963692
      0.00115617	    -10.69000175	   -480.13863232	      0.37537610	    612.11151585	     -0.00000000	     -0.00000000	      0.00000000	      0.00000000	      0.00000000	      0.00000000	     -0.00000000	     -0.00000000	     -0.00000000	     -0.00000000	     -0.00000000	     -0.00000000	     80.43277498	     47.70396435	      4.04404013	      1.28844933	     -4.17861439	     14.33306803	   -118.91186136	    130.59022774	     -0.00334960	      0.04814368	     -0.49569536	      0.04138951	     17.65078045	      0.07034585	      0.01999524	      0.06620447	     -0.02451921	      0.01078165	     28.89062284	    -47.65543769	      0.00000000	     -0.00000000	     -0.00000000	     -0.00000000	      0.04917675	      0.13623795	      0.04917675	      0.14451489	      0.04917675	      0.15404753	      0.04917675	      0.16206600	      0.04917675	      0.12973328	      0.04917675	      0.10963859
      0.00541674	    -12.73566383	   -480.13863232	      2.97909335	    610.11525720	      0.00000000	      0.00000000	     -0.00000000	     -0.00000000	      0.00000000	      0.00000000	     -0.00000000	     -0.00000000	     -0.00000000	     -0.00000000	     -0.00000000	     -0.00000000	     80.61856083	     39.49087972	      4.04971273	      1.37398148	     -4.11601658	     15.04385733	   -118.33847544	    138.53319068	     -0.00313967	      0.05037233	     -0.49551327	      0.04408071	     17.65103956	      0.05041534	      0.02028511	      0.06983763	     -0.02447202	      0.01136442	     28.68369661	    -49.43954293	     -0.00000000	     -0.00000000	     -0.00000000	     -0.00000000	      0.04627221	      0.13626334	      0.04627221	      0.14454564	      0.04627221	      0.15408167	      0.04627221	      0.16190004	      0.04627221	      0.12975911	      0.04627221	      0.10968717
      0.00967730	    -14.78132591	   -480.13863232	      5.57414602	    608.04707141	      0.00000000	      0.00000000	     -0.00000000	     -0.00000000	      0.00000000	      0.00000000	     -0.00000000	     -0.00000000	     -0.00000000	     -0.00000000	     -0.00000000	     -0.00000000	     80.76915601	     31.18911403	      4.05574415	      1.45679796	     -4.05049028	     15.70778864	   -117.73171464	    146.25599066	     -0.00292066	      0.05240143	     -0.49531981	      0.04672791	     17.65120227	      0.02501402	      0.02059009	      0.07329350	     -0.02442242	      0.01191392	     28.46968658	    -50.98112224	     -0.00000000	     -0.00000000	     -0.00000000	     -0.00000000	      0.04355875	      0.13632841	      0.04355875	      0.14460339	      0.04355875	      0.15415141	      0.04355875	      0.16163899	      0.04355875	      0.12981056	      0.04355875	      0.10984464
      0.01483136	    -17.25598693	   -480.13863232	      8.70144901	    605.47281251	      0.00000000	      0.00000000	     -0.00000000	     -0.00000000	      0.00000000	      0.00000000	     -0.00000000	     -0.00000000	     -0.00000000	     -0.00000000	     -0.00000000	     -0.00000000	     80.90384643	     21.06524113	      4.06350178	      1.55265233	     -3.96759265	     16.44889970	   -116.95446416	    155.29538045	     -0.00264482	      0.05458471	     -0.49507085	      0.04986736	     17.65123540	     -0.01367129	      0.02097811	      0.07723234	     -0.02435940	      0.01253207	     28.20279526	    -52.52682570	     -0.00000000	     -0.00000000	     -0.00000000	     -0.00000000	      0.04051064	      0.13646119	      0.04051064	      0.14469204	      0.04051064	      0.15425325	      0.04051064	      0.16135881	      0.04051064	      0.12988985	      0.04051064	      0.11013823
